<svg width="22" height="22" viewBox="0 0 22 22" fill="none" xmlns="http://www.w3.org/2000/svg">
<path d="M19.25 6.41536V15.582C19.25 18.332 17.875 20.1654 14.6667 20.1654H7.33333C4.125 20.1654 2.75 18.332 2.75 15.582V6.41536C2.75 3.66536 4.125 1.83203 7.33333 1.83203H14.6667C17.875 1.83203 19.25 3.66536 19.25 6.41536Z" stroke="#1C1B1E" stroke-width="1.5" stroke-miterlimit="10" stroke-linecap="round" stroke-linejoin="round"/>
<path d="M14.2057 1.83203V9.03702C14.2057 9.44035 13.729 9.64201 13.4357 9.37618L11.3091 7.41456C11.1349 7.24956 10.8599 7.24956 10.6857 7.41456L8.55909 9.37618C8.26575 9.64201 7.78906 9.44035 7.78906 9.03702V1.83203H14.2057Z" stroke="#1C1B1E" stroke-width="1.5" stroke-miterlimit="10" stroke-linecap="round" stroke-linejoin="round"/>
<path d="M12.1484 12.832H16.0443" stroke="#1C1B1E" stroke-width="1.5" stroke-miterlimit="10" stroke-linecap="round" stroke-linejoin="round"/>
<path d="M8.25 16.5H16.0417" stroke="#1C1B1E" stroke-width="1.5" stroke-miterlimit="10" stroke-linecap="round" stroke-linejoin="round"/>
</svg>
