<svg width="22" height="22" viewBox="0 0 22 22" fill="none" xmlns="http://www.w3.org/2000/svg">
<g clip-path="url(#clip0_824_66201)">
<path d="M17.8791 11.532L11.0076 18.3375L4.13619 11.532C3.68296 11.091 3.32595 10.5609 3.08766 9.97507C2.84936 9.38928 2.73494 8.76049 2.75159 8.1283C2.76824 7.49611 2.91561 6.87422 3.18442 6.30179C3.45322 5.72935 3.83764 5.21877 4.31347 4.8022C4.78929 4.38563 5.34621 4.0721 5.94917 3.88134C6.55212 3.69058 7.18804 3.62673 7.81688 3.69381C8.44572 3.76089 9.05385 3.95745 9.603 4.27111C10.1521 4.58477 10.6304 5.00873 11.0076 5.5163C11.3865 5.01242 11.8653 4.59216 12.4141 4.28183C12.9628 3.9715 13.5698 3.77778 14.1968 3.7128C14.8239 3.64781 15.4577 3.71296 16.0584 3.90416C16.6591 4.09537 17.2139 4.40851 17.6881 4.82399C18.1622 5.23948 18.5455 5.74836 18.814 6.31879C19.0824 6.88921 19.2302 7.50891 19.2481 8.13909C19.2661 8.76927 19.1537 9.39637 18.9182 9.98113C18.6826 10.5659 18.3288 11.0957 17.8791 11.5375" stroke="#1C1B1E" stroke-width="1.5" stroke-linecap="round" stroke-linejoin="round"/>
</g>
<defs>
<clipPath id="clip0_824_66201">
<rect width="22" height="22" fill="white"/>
</clipPath>
</defs>
</svg>
