<svg width="20" height="20" viewBox="0 0 20 20" fill="none" xmlns="http://www.w3.org/2000/svg">
<g clip-path="url(#clip0_1_1042)">
<path d="M10 11.6666C11.3807 11.6666 12.5 10.5473 12.5 9.16663C12.5 7.78591 11.3807 6.66663 10 6.66663C8.61929 6.66663 7.5 7.78591 7.5 9.16663C7.5 10.5473 8.61929 11.6666 10 11.6666Z" stroke="#48464A" stroke-width="1.5" stroke-linecap="round" stroke-linejoin="round"/>
<path d="M14.7142 13.8808L11.1783 17.4167C10.8658 17.7289 10.4422 17.9042 10.0004 17.9042C9.55868 17.9042 9.13501 17.7289 8.8225 17.4167L5.28583 13.8808C4.35352 12.9485 3.71861 11.7606 3.4614 10.4674C3.2042 9.17419 3.33624 7.83376 3.84083 6.61561C4.34543 5.39745 5.19991 4.35628 6.29623 3.62376C7.39255 2.89123 8.68147 2.50024 10 2.50024C11.3185 2.50024 12.6074 2.89123 13.7038 3.62376C14.8001 4.35628 15.6546 5.39745 16.1592 6.61561C16.6638 7.83376 16.7958 9.17419 16.5386 10.4674C16.2814 11.7606 15.6465 12.9485 14.7142 13.8808V13.8808Z" stroke="#48464A" stroke-width="1.5" stroke-linecap="round" stroke-linejoin="round"/>
</g>
<defs>
<clipPath id="clip0_1_1042">
<rect width="20" height="20" fill="white"/>
</clipPath>
</defs>
</svg>
