<svg width="22" height="22" viewBox="0 0 22 22" fill="none" xmlns="http://www.w3.org/2000/svg">
<path d="M15.5859 16.8933H11.9193L7.84009 19.6066C7.23509 20.0099 6.41927 19.5791 6.41927 18.8458V16.8933C3.66927 16.8933 1.83594 15.06 1.83594 12.31V6.8099C1.83594 4.0599 3.66927 2.22656 6.41927 2.22656H15.5859C18.3359 2.22656 20.1693 4.0599 20.1693 6.8099V12.31C20.1693 15.06 18.3359 16.8933 15.5859 16.8933Z" stroke="#1C1B1E" stroke-width="1.5" stroke-miterlimit="10" stroke-linecap="round" stroke-linejoin="round"/>
<path d="M10.9982 10.4141V10.2216C10.9982 9.59826 11.3832 9.26825 11.7682 9.00242C12.1441 8.74575 12.5198 8.41576 12.5198 7.81076C12.5198 6.96743 11.8415 6.28906 10.9982 6.28906C10.1549 6.28906 9.47656 6.96743 9.47656 7.81076" stroke="#1C1B1E" stroke-width="1.5" stroke-linecap="round" stroke-linejoin="round"/>
<path d="M10.9933 12.6029H11.0015" stroke="#1C1B1E" stroke-width="1.5" stroke-linecap="round" stroke-linejoin="round"/>
</svg>
